<mxfile host="app.diagrams.net" modified="2024-07-17T13:36:58.850Z" agent="Mozilla/5.0 (Windows NT 10.0; Win64; x64; rv:128.0) Gecko/20100101 Firefox/128.0" etag="HVKXlIvjMbZdvw_w5GTi" version="24.7.0" type="github">
  <diagram name="Page-1" id="0-_dwnvICg-240BtrSgw">
    <mxGraphModel dx="787" dy="517" grid="1" gridSize="10" guides="1" tooltips="1" connect="1" arrows="1" fold="1" page="1" pageScale="1" pageWidth="850" pageHeight="1100" math="0" shadow="0">
      <root>
        <mxCell id="0" />
        <mxCell id="1" parent="0" />
        <mxCell id="CYv_d9JeI1YmFEepkGHd-15" value="" style="group" vertex="1" connectable="0" parent="1">
          <mxGeometry x="120" y="60" width="120" height="60" as="geometry" />
        </mxCell>
        <mxCell id="CYv_d9JeI1YmFEepkGHd-5" value="" style="rounded=1;whiteSpace=wrap;html=1;strokeWidth=2;fillColor=#FFFF99;" vertex="1" parent="CYv_d9JeI1YmFEepkGHd-15">
          <mxGeometry width="120" height="60" as="geometry" />
        </mxCell>
        <mxCell id="CYv_d9JeI1YmFEepkGHd-6" value="Sign in" style="text;strokeColor=none;align=center;fillColor=none;html=1;verticalAlign=middle;whiteSpace=wrap;rounded=0;fontSize=22;fontStyle=1" vertex="1" parent="CYv_d9JeI1YmFEepkGHd-15">
          <mxGeometry x="15" y="15" width="90" height="30" as="geometry" />
        </mxCell>
        <mxCell id="CYv_d9JeI1YmFEepkGHd-16" value="" style="group" vertex="1" connectable="0" parent="1">
          <mxGeometry x="120" y="190" width="120" height="60" as="geometry" />
        </mxCell>
        <mxCell id="CYv_d9JeI1YmFEepkGHd-17" value="" style="rounded=1;whiteSpace=wrap;html=1;strokeWidth=2;fillColor=#FFFF99;" vertex="1" parent="CYv_d9JeI1YmFEepkGHd-16">
          <mxGeometry width="120" height="60" as="geometry" />
        </mxCell>
        <mxCell id="CYv_d9JeI1YmFEepkGHd-18" value="Go to io" style="text;strokeColor=none;align=center;fillColor=none;html=1;verticalAlign=middle;whiteSpace=wrap;rounded=0;fontSize=22;fontStyle=1" vertex="1" parent="CYv_d9JeI1YmFEepkGHd-16">
          <mxGeometry x="15" y="15" width="90" height="30" as="geometry" />
        </mxCell>
        <mxCell id="CYv_d9JeI1YmFEepkGHd-22" value="" style="group" vertex="1" connectable="0" parent="1">
          <mxGeometry x="120" y="575" width="120" height="60" as="geometry" />
        </mxCell>
        <mxCell id="CYv_d9JeI1YmFEepkGHd-23" value="" style="rounded=1;whiteSpace=wrap;html=1;strokeWidth=2;fillColor=#FFFF99;" vertex="1" parent="CYv_d9JeI1YmFEepkGHd-22">
          <mxGeometry width="120" height="60" as="geometry" />
        </mxCell>
        <mxCell id="CYv_d9JeI1YmFEepkGHd-24" value="&lt;div&gt;View&lt;/div&gt;&lt;div&gt;Results&lt;br&gt;&lt;/div&gt;" style="text;strokeColor=none;align=center;fillColor=none;html=1;verticalAlign=middle;whiteSpace=wrap;rounded=0;fontSize=22;fontStyle=1" vertex="1" parent="CYv_d9JeI1YmFEepkGHd-22">
          <mxGeometry x="15" y="15" width="90" height="30" as="geometry" />
        </mxCell>
        <mxCell id="CYv_d9JeI1YmFEepkGHd-28" value="" style="group" vertex="1" connectable="0" parent="1">
          <mxGeometry x="120" y="300" width="120" height="60" as="geometry" />
        </mxCell>
        <mxCell id="CYv_d9JeI1YmFEepkGHd-29" value="" style="rounded=1;whiteSpace=wrap;html=1;strokeWidth=2;fillColor=#FFFF99;" vertex="1" parent="CYv_d9JeI1YmFEepkGHd-28">
          <mxGeometry width="120" height="60" as="geometry" />
        </mxCell>
        <mxCell id="CYv_d9JeI1YmFEepkGHd-30" value="&lt;div&gt;Upload&lt;/div&gt;&lt;div&gt;Template&lt;br&gt;&lt;/div&gt;" style="text;strokeColor=none;align=center;fillColor=none;html=1;verticalAlign=middle;whiteSpace=wrap;rounded=0;fontSize=22;fontStyle=1" vertex="1" parent="CYv_d9JeI1YmFEepkGHd-28">
          <mxGeometry x="15" y="15" width="90" height="30" as="geometry" />
        </mxCell>
        <mxCell id="CYv_d9JeI1YmFEepkGHd-20" value="" style="rounded=1;whiteSpace=wrap;html=1;strokeWidth=2;fillColor=#FFFF99;" vertex="1" parent="1">
          <mxGeometry x="120" y="700" width="120" height="60" as="geometry" />
        </mxCell>
        <mxCell id="CYv_d9JeI1YmFEepkGHd-19" value="" style="group" vertex="1" connectable="0" parent="1">
          <mxGeometry x="120" y="695" width="120" height="60" as="geometry" />
        </mxCell>
        <mxCell id="CYv_d9JeI1YmFEepkGHd-21" value="&lt;div&gt;Edit&lt;/div&gt;&lt;div&gt;Contents&lt;br&gt;&lt;/div&gt;" style="text;strokeColor=none;align=center;fillColor=none;html=1;verticalAlign=middle;whiteSpace=wrap;rounded=0;fontSize=22;fontStyle=1" vertex="1" parent="CYv_d9JeI1YmFEepkGHd-19">
          <mxGeometry x="15" y="15" width="90" height="30" as="geometry" />
        </mxCell>
        <mxCell id="CYv_d9JeI1YmFEepkGHd-33" value="" style="group" vertex="1" connectable="0" parent="1">
          <mxGeometry x="370" y="40" width="280" height="220" as="geometry" />
        </mxCell>
        <mxCell id="CYv_d9JeI1YmFEepkGHd-31" value="" style="shape=process;whiteSpace=wrap;html=1;backgroundOutline=1;fillColor=#33FF33;" vertex="1" parent="CYv_d9JeI1YmFEepkGHd-33">
          <mxGeometry width="280" height="220" as="geometry" />
        </mxCell>
        <mxCell id="CYv_d9JeI1YmFEepkGHd-32" value="&lt;div&gt;&lt;font style=&quot;font-size: 22px;&quot; color=&quot;#cc6600&quot;&gt;Open Email&lt;/font&gt;&lt;/div&gt;&lt;div&gt;&lt;font style=&quot;font-size: 22px;&quot; color=&quot;#cc6600&quot;&gt;Go To Home Page&lt;/font&gt;&lt;/div&gt;&lt;div&gt;&lt;font style=&quot;font-size: 22px;&quot; color=&quot;#cc6600&quot;&gt;Get Control Panel&lt;/font&gt;&lt;/div&gt;&lt;div&gt;&lt;font style=&quot;font-size: 22px;&quot; color=&quot;#cc6600&quot;&gt;Go To SupaDupa999&lt;/font&gt;&lt;/div&gt;&lt;div&gt;&lt;font style=&quot;font-size: 22px;&quot; color=&quot;#cc6600&quot;&gt;Enter Email Address&lt;/font&gt;&lt;/div&gt;&lt;div&gt;&lt;font style=&quot;font-size: 22px;&quot; color=&quot;#cc6600&quot;&gt;Enter Password&lt;/font&gt;&lt;/div&gt;&lt;div&gt;&lt;font style=&quot;font-size: 22px;&quot; color=&quot;#cc6600&quot;&gt;? Validation Number&lt;/font&gt;&lt;/div&gt;&lt;div&gt;&lt;font style=&quot;font-size: 22px;&quot; color=&quot;#cc6600&quot;&gt;Signed In&lt;br&gt;&lt;/font&gt;&lt;/div&gt;&lt;div&gt;&lt;font style=&quot;font-size: 22px;&quot; color=&quot;#cc6600&quot;&gt;&lt;br&gt;&lt;/font&gt;&lt;/div&gt;" style="text;strokeColor=none;align=center;fillColor=none;html=1;verticalAlign=middle;whiteSpace=wrap;rounded=0;fontStyle=1;fontSize=18;" vertex="1" parent="CYv_d9JeI1YmFEepkGHd-33">
          <mxGeometry x="30" y="105" width="220" height="30" as="geometry" />
        </mxCell>
        <mxCell id="CYv_d9JeI1YmFEepkGHd-34" value="" style="group" vertex="1" connectable="0" parent="1">
          <mxGeometry x="370" y="280" width="280" height="150" as="geometry" />
        </mxCell>
        <mxCell id="CYv_d9JeI1YmFEepkGHd-35" value="" style="shape=process;whiteSpace=wrap;html=1;backgroundOutline=1;fillColor=#33FF33;" vertex="1" parent="CYv_d9JeI1YmFEepkGHd-34">
          <mxGeometry width="280" height="150" as="geometry" />
        </mxCell>
        <mxCell id="CYv_d9JeI1YmFEepkGHd-36" value="&lt;div&gt;&lt;font style=&quot;font-size: 22px;&quot; color=&quot;#cc6600&quot;&gt;Click Download Icon&lt;/font&gt;&lt;/div&gt;&lt;div&gt;&lt;font style=&quot;font-size: 22px;&quot; color=&quot;#cc6600&quot;&gt;Open Search Panel&lt;/font&gt;&lt;/div&gt;&lt;div&gt;&lt;font style=&quot;font-size: 22px;&quot; color=&quot;#cc6600&quot;&gt;Search Template Folder&lt;/font&gt;&lt;/div&gt;&lt;div&gt;&lt;font style=&quot;font-size: 22px;&quot; color=&quot;#cc6600&quot;&gt;Click Open&lt;/font&gt;&lt;/div&gt;&lt;div&gt;&lt;font style=&quot;font-size: 22px;&quot; color=&quot;#cc6600&quot;&gt;Click Commit&lt;/font&gt;&lt;/div&gt;" style="text;strokeColor=none;align=center;fillColor=none;html=1;verticalAlign=middle;whiteSpace=wrap;rounded=0;fontStyle=1;fontSize=18;" vertex="1" parent="CYv_d9JeI1YmFEepkGHd-34">
          <mxGeometry x="5" y="64.77272727272728" width="270" height="20.454545454545453" as="geometry" />
        </mxCell>
        <mxCell id="CYv_d9JeI1YmFEepkGHd-37" value="" style="group" vertex="1" connectable="0" parent="1">
          <mxGeometry x="100" y="450" width="160" height="60" as="geometry" />
        </mxCell>
        <mxCell id="CYv_d9JeI1YmFEepkGHd-26" value="" style="rounded=1;whiteSpace=wrap;html=1;strokeWidth=2;fillColor=#FFFF99;container=0;" vertex="1" parent="CYv_d9JeI1YmFEepkGHd-37">
          <mxGeometry width="160" height="60" as="geometry" />
        </mxCell>
        <mxCell id="CYv_d9JeI1YmFEepkGHd-27" value="&lt;div&gt;Change&lt;/div&gt;&lt;div&gt;File&amp;nbsp; Name&lt;/div&gt;" style="text;strokeColor=none;align=center;fillColor=none;html=1;verticalAlign=middle;whiteSpace=wrap;rounded=0;fontSize=22;fontStyle=1;container=0;" vertex="1" parent="CYv_d9JeI1YmFEepkGHd-37">
          <mxGeometry x="20" y="15" width="120" height="30" as="geometry" />
        </mxCell>
        <mxCell id="CYv_d9JeI1YmFEepkGHd-38" value="" style="group" vertex="1" connectable="0" parent="1">
          <mxGeometry x="370" y="460" width="280" height="90" as="geometry" />
        </mxCell>
        <mxCell id="CYv_d9JeI1YmFEepkGHd-39" value="" style="shape=process;whiteSpace=wrap;html=1;backgroundOutline=1;fillColor=#33FF33;" vertex="1" parent="CYv_d9JeI1YmFEepkGHd-38">
          <mxGeometry width="280" height="90" as="geometry" />
        </mxCell>
        <mxCell id="CYv_d9JeI1YmFEepkGHd-40" value="&lt;div&gt;&lt;font style=&quot;font-size: 22px;&quot; color=&quot;#cc6600&quot;&gt;Click Edit&lt;/font&gt;&lt;/div&gt;&lt;div&gt;&lt;font style=&quot;font-size: 22px;&quot; color=&quot;#cc6600&quot;&gt;Change File Name&lt;/font&gt;&lt;/div&gt;&lt;div&gt;&lt;font style=&quot;font-size: 22px;&quot; color=&quot;#cc6600&quot;&gt;Commit&lt;/font&gt;&lt;/div&gt;" style="text;strokeColor=none;align=center;fillColor=none;html=1;verticalAlign=middle;whiteSpace=wrap;rounded=0;fontStyle=1;fontSize=18;" vertex="1" parent="CYv_d9JeI1YmFEepkGHd-38">
          <mxGeometry x="5" y="38.863636363636374" width="270" height="12.272727272727273" as="geometry" />
        </mxCell>
        <mxCell id="CYv_d9JeI1YmFEepkGHd-41" value="" style="group" vertex="1" connectable="0" parent="1">
          <mxGeometry x="370" y="580" width="280" height="90" as="geometry" />
        </mxCell>
        <mxCell id="CYv_d9JeI1YmFEepkGHd-42" value="" style="shape=process;whiteSpace=wrap;html=1;backgroundOutline=1;fillColor=#33FF33;" vertex="1" parent="CYv_d9JeI1YmFEepkGHd-41">
          <mxGeometry width="280" height="90" as="geometry" />
        </mxCell>
        <mxCell id="CYv_d9JeI1YmFEepkGHd-43" value="&lt;div&gt;&lt;font style=&quot;font-size: 22px;&quot; color=&quot;#cc6600&quot;&gt;View Page on Browser&lt;/font&gt;&lt;/div&gt;&lt;div&gt;&lt;font style=&quot;font-size: 22px;&quot; color=&quot;#cc6600&quot;&gt;Refresh Panel&lt;/font&gt;&lt;/div&gt;&lt;div&gt;&lt;font style=&quot;font-size: 22px;&quot; color=&quot;#cc6600&quot;&gt;View Page on Browser&lt;/font&gt;&lt;/div&gt;" style="text;strokeColor=none;align=center;fillColor=none;html=1;verticalAlign=middle;whiteSpace=wrap;rounded=0;fontStyle=1;fontSize=18;" vertex="1" parent="CYv_d9JeI1YmFEepkGHd-41">
          <mxGeometry x="5" y="38.863636363636374" width="270" height="12.272727272727273" as="geometry" />
        </mxCell>
        <mxCell id="CYv_d9JeI1YmFEepkGHd-44" value="" style="group" vertex="1" connectable="0" parent="1">
          <mxGeometry x="120" y="830" width="120" height="60" as="geometry" />
        </mxCell>
        <mxCell id="CYv_d9JeI1YmFEepkGHd-45" value="" style="rounded=1;whiteSpace=wrap;html=1;strokeWidth=2;fillColor=#FFFF99;" vertex="1" parent="CYv_d9JeI1YmFEepkGHd-44">
          <mxGeometry width="120" height="60" as="geometry" />
        </mxCell>
        <mxCell id="CYv_d9JeI1YmFEepkGHd-46" value="&lt;div&gt;View&lt;/div&gt;&lt;div&gt;Results&lt;br&gt;&lt;/div&gt;" style="text;strokeColor=none;align=center;fillColor=none;html=1;verticalAlign=middle;whiteSpace=wrap;rounded=0;fontSize=22;fontStyle=1" vertex="1" parent="CYv_d9JeI1YmFEepkGHd-44">
          <mxGeometry x="15" y="15" width="90" height="30" as="geometry" />
        </mxCell>
        <mxCell id="CYv_d9JeI1YmFEepkGHd-47" value="" style="ellipse;whiteSpace=wrap;html=1;aspect=fixed;fontColor=#0000FF;fillColor=#FF66FF;strokeWidth=3;" vertex="1" parent="1">
          <mxGeometry x="140" y="970" width="80" height="80" as="geometry" />
        </mxCell>
        <mxCell id="CYv_d9JeI1YmFEepkGHd-48" value="&lt;div&gt;&lt;font color=&quot;#0000ff&quot;&gt;?&lt;/font&gt;&lt;/div&gt;&lt;div&gt;&lt;font color=&quot;#0000ff&quot;&gt;OK&lt;br&gt;&lt;/font&gt;&lt;/div&gt;" style="text;strokeColor=none;align=center;fillColor=none;html=1;verticalAlign=middle;whiteSpace=wrap;rounded=0;fontSize=22;fontStyle=1" vertex="1" parent="1">
          <mxGeometry x="135" y="995" width="90" height="30" as="geometry" />
        </mxCell>
        <mxCell id="CYv_d9JeI1YmFEepkGHd-50" value="" style="group" vertex="1" connectable="0" parent="1">
          <mxGeometry x="370" y="720" width="280" height="90" as="geometry" />
        </mxCell>
        <mxCell id="CYv_d9JeI1YmFEepkGHd-51" value="" style="shape=process;whiteSpace=wrap;html=1;backgroundOutline=1;fillColor=#33FF33;" vertex="1" parent="CYv_d9JeI1YmFEepkGHd-50">
          <mxGeometry width="280" height="90" as="geometry" />
        </mxCell>
        <mxCell id="CYv_d9JeI1YmFEepkGHd-52" value="&lt;div&gt;&lt;font style=&quot;font-size: 22px;&quot; color=&quot;#cc6600&quot;&gt;Click Edit&lt;/font&gt;&lt;/div&gt;&lt;div&gt;&lt;font style=&quot;font-size: 22px;&quot; color=&quot;#cc6600&quot;&gt;Change File Contents Commit&lt;/font&gt;&lt;/div&gt;" style="text;strokeColor=none;align=center;fillColor=none;html=1;verticalAlign=middle;whiteSpace=wrap;rounded=0;fontStyle=1;fontSize=18;" vertex="1" parent="CYv_d9JeI1YmFEepkGHd-50">
          <mxGeometry x="5" y="38.863636363636374" width="270" height="12.272727272727273" as="geometry" />
        </mxCell>
        <mxCell id="CYv_d9JeI1YmFEepkGHd-56" value="" style="group" vertex="1" connectable="0" parent="1">
          <mxGeometry x="370" y="840" width="280" height="90" as="geometry" />
        </mxCell>
        <mxCell id="CYv_d9JeI1YmFEepkGHd-57" value="" style="shape=process;whiteSpace=wrap;html=1;backgroundOutline=1;fillColor=#33FF33;" vertex="1" parent="CYv_d9JeI1YmFEepkGHd-56">
          <mxGeometry width="280" height="90" as="geometry" />
        </mxCell>
        <mxCell id="CYv_d9JeI1YmFEepkGHd-58" value="&lt;div&gt;&lt;font style=&quot;font-size: 22px;&quot; color=&quot;#cc6600&quot;&gt;View Page on Browser&lt;/font&gt;&lt;/div&gt;&lt;div&gt;&lt;font style=&quot;font-size: 22px;&quot; color=&quot;#cc6600&quot;&gt;Refresh Panel&lt;/font&gt;&lt;/div&gt;&lt;div&gt;&lt;font style=&quot;font-size: 22px;&quot; color=&quot;#cc6600&quot;&gt;View Page on Browser&lt;/font&gt;&lt;/div&gt;" style="text;strokeColor=none;align=center;fillColor=none;html=1;verticalAlign=middle;whiteSpace=wrap;rounded=0;fontStyle=1;fontSize=18;" vertex="1" parent="CYv_d9JeI1YmFEepkGHd-56">
          <mxGeometry x="5" y="38.863636363636374" width="270" height="12.272727272727273" as="geometry" />
        </mxCell>
        <mxCell id="CYv_d9JeI1YmFEepkGHd-60" value="" style="rounded=1;whiteSpace=wrap;html=1;strokeWidth=2;fillColor=#400040;" vertex="1" parent="1">
          <mxGeometry x="440" y="980" width="120" height="60" as="geometry" />
        </mxCell>
        <mxCell id="CYv_d9JeI1YmFEepkGHd-61" value="Sign Out" style="text;strokeColor=none;align=center;fillColor=none;html=1;verticalAlign=middle;whiteSpace=wrap;rounded=0;fontSize=22;fontStyle=1;fontColor=#ffffff;" vertex="1" parent="1">
          <mxGeometry x="455" y="995" width="90" height="30" as="geometry" />
        </mxCell>
        <mxCell id="CYv_d9JeI1YmFEepkGHd-70" value="" style="shape=flexArrow;endArrow=classic;html=1;rounded=0;exitX=1;exitY=0.5;exitDx=0;exitDy=0;entryX=0.007;entryY=0.223;entryDx=0;entryDy=0;entryPerimeter=0;endSize=6;strokeWidth=2;" edge="1" parent="1" source="CYv_d9JeI1YmFEepkGHd-5" target="CYv_d9JeI1YmFEepkGHd-31">
          <mxGeometry width="50" height="50" relative="1" as="geometry">
            <mxPoint x="270" y="100" as="sourcePoint" />
            <mxPoint x="360" y="90" as="targetPoint" />
          </mxGeometry>
        </mxCell>
        <mxCell id="CYv_d9JeI1YmFEepkGHd-72" value="" style="shape=flexArrow;endArrow=classic;html=1;rounded=0;exitX=1;exitY=0.5;exitDx=0;exitDy=0;entryX=0.007;entryY=0.223;entryDx=0;entryDy=0;entryPerimeter=0;endSize=6;strokeWidth=2;" edge="1" parent="1">
          <mxGeometry width="50" height="50" relative="1" as="geometry">
            <mxPoint x="238" y="326" as="sourcePoint" />
            <mxPoint x="370" y="325" as="targetPoint" />
          </mxGeometry>
        </mxCell>
        <mxCell id="CYv_d9JeI1YmFEepkGHd-73" value="" style="shape=flexArrow;endArrow=classic;html=1;rounded=0;endSize=6;strokeWidth=2;entryX=0.5;entryY=0;entryDx=0;entryDy=0;exitX=0;exitY=0.8;exitDx=0;exitDy=0;exitPerimeter=0;" edge="1" parent="1" source="CYv_d9JeI1YmFEepkGHd-35" target="CYv_d9JeI1YmFEepkGHd-26">
          <mxGeometry width="50" height="50" relative="1" as="geometry">
            <mxPoint x="364" y="400" as="sourcePoint" />
            <mxPoint x="262" y="392" as="targetPoint" />
            <Array as="points">
              <mxPoint x="300" y="400" />
              <mxPoint x="180" y="400" />
            </Array>
          </mxGeometry>
        </mxCell>
        <mxCell id="CYv_d9JeI1YmFEepkGHd-75" value="" style="shape=flexArrow;endArrow=classic;html=1;rounded=0;endSize=6;strokeWidth=2;entryX=0.563;entryY=0;entryDx=0;entryDy=0;entryPerimeter=0;exitX=0;exitY=0.5;exitDx=0;exitDy=0;exitPerimeter=0;" edge="1" parent="1" source="CYv_d9JeI1YmFEepkGHd-31">
          <mxGeometry width="50" height="50" relative="1" as="geometry">
            <mxPoint x="360" y="150" as="sourcePoint" />
            <mxPoint x="180" y="190" as="targetPoint" />
            <Array as="points">
              <mxPoint x="180" y="150" />
            </Array>
          </mxGeometry>
        </mxCell>
        <mxCell id="CYv_d9JeI1YmFEepkGHd-76" value="" style="shape=flexArrow;endArrow=classic;html=1;rounded=0;endSize=6;strokeWidth=2;exitX=0.5;exitY=1;exitDx=0;exitDy=0;" edge="1" parent="1" source="CYv_d9JeI1YmFEepkGHd-17" target="CYv_d9JeI1YmFEepkGHd-29">
          <mxGeometry width="50" height="50" relative="1" as="geometry">
            <mxPoint x="180" y="260" as="sourcePoint" />
            <mxPoint x="312" y="259" as="targetPoint" />
          </mxGeometry>
        </mxCell>
        <mxCell id="CYv_d9JeI1YmFEepkGHd-77" value="" style="edgeStyle=orthogonalEdgeStyle;rounded=0;orthogonalLoop=1;jettySize=auto;html=1;" edge="1" parent="1" source="CYv_d9JeI1YmFEepkGHd-29" target="CYv_d9JeI1YmFEepkGHd-27">
          <mxGeometry relative="1" as="geometry" />
        </mxCell>
        <mxCell id="CYv_d9JeI1YmFEepkGHd-78" value="" style="shape=flexArrow;endArrow=classic;html=1;rounded=0;entryX=0.007;entryY=0.223;entryDx=0;entryDy=0;entryPerimeter=0;endSize=6;strokeWidth=2;" edge="1" parent="1">
          <mxGeometry width="50" height="50" relative="1" as="geometry">
            <mxPoint x="260" y="480" as="sourcePoint" />
            <mxPoint x="370" y="479.5" as="targetPoint" />
          </mxGeometry>
        </mxCell>
        <mxCell id="CYv_d9JeI1YmFEepkGHd-79" value="" style="shape=flexArrow;endArrow=classic;html=1;rounded=0;endSize=6;strokeWidth=2;entryX=0.5;entryY=0;entryDx=0;entryDy=0;exitX=0;exitY=0.75;exitDx=0;exitDy=0;" edge="1" parent="1" source="CYv_d9JeI1YmFEepkGHd-39">
          <mxGeometry width="50" height="50" relative="1" as="geometry">
            <mxPoint x="380" y="525" as="sourcePoint" />
            <mxPoint x="190" y="575" as="targetPoint" />
            <Array as="points">
              <mxPoint x="190" y="530" />
            </Array>
          </mxGeometry>
        </mxCell>
        <mxCell id="CYv_d9JeI1YmFEepkGHd-80" value="" style="shape=flexArrow;endArrow=classic;html=1;rounded=0;entryX=0;entryY=0.25;entryDx=0;entryDy=0;endSize=6;strokeWidth=2;" edge="1" parent="1" target="CYv_d9JeI1YmFEepkGHd-42">
          <mxGeometry width="50" height="50" relative="1" as="geometry">
            <mxPoint x="240" y="600.5" as="sourcePoint" />
            <mxPoint x="350" y="600" as="targetPoint" />
          </mxGeometry>
        </mxCell>
        <mxCell id="CYv_d9JeI1YmFEepkGHd-81" value="" style="shape=flexArrow;endArrow=classic;html=1;rounded=0;endSize=6;strokeWidth=2;entryX=0.5;entryY=0;entryDx=0;entryDy=0;exitX=0;exitY=0.833;exitDx=0;exitDy=0;exitPerimeter=0;" edge="1" parent="1" source="CYv_d9JeI1YmFEepkGHd-42">
          <mxGeometry width="50" height="50" relative="1" as="geometry">
            <mxPoint x="360" y="650" as="sourcePoint" />
            <mxPoint x="180" y="700" as="targetPoint" />
            <Array as="points">
              <mxPoint x="180" y="655" />
            </Array>
          </mxGeometry>
        </mxCell>
        <mxCell id="CYv_d9JeI1YmFEepkGHd-82" value="" style="shape=flexArrow;endArrow=classic;html=1;rounded=0;entryX=0;entryY=0.25;entryDx=0;entryDy=0;endSize=6;strokeWidth=2;" edge="1" parent="1">
          <mxGeometry width="50" height="50" relative="1" as="geometry">
            <mxPoint x="240" y="740" as="sourcePoint" />
            <mxPoint x="370" y="742.5" as="targetPoint" />
          </mxGeometry>
        </mxCell>
        <mxCell id="CYv_d9JeI1YmFEepkGHd-83" value="" style="shape=flexArrow;endArrow=classic;html=1;rounded=0;endSize=6;strokeWidth=2;entryX=0.5;entryY=0;entryDx=0;entryDy=0;exitX=0;exitY=0.833;exitDx=0;exitDy=0;exitPerimeter=0;" edge="1" parent="1">
          <mxGeometry width="50" height="50" relative="1" as="geometry">
            <mxPoint x="370" y="785" as="sourcePoint" />
            <mxPoint x="180" y="830" as="targetPoint" />
            <Array as="points">
              <mxPoint x="180" y="785" />
            </Array>
          </mxGeometry>
        </mxCell>
        <mxCell id="CYv_d9JeI1YmFEepkGHd-84" value="" style="edgeStyle=orthogonalEdgeStyle;rounded=0;orthogonalLoop=1;jettySize=auto;html=1;" edge="1" parent="1" source="CYv_d9JeI1YmFEepkGHd-46" target="CYv_d9JeI1YmFEepkGHd-21">
          <mxGeometry relative="1" as="geometry" />
        </mxCell>
        <mxCell id="CYv_d9JeI1YmFEepkGHd-85" value="" style="shape=flexArrow;endArrow=classic;html=1;rounded=0;entryX=0;entryY=0.25;entryDx=0;entryDy=0;endSize=6;strokeWidth=2;" edge="1" parent="1">
          <mxGeometry width="50" height="50" relative="1" as="geometry">
            <mxPoint x="240" y="858.75" as="sourcePoint" />
            <mxPoint x="370" y="861.25" as="targetPoint" />
          </mxGeometry>
        </mxCell>
        <mxCell id="CYv_d9JeI1YmFEepkGHd-86" value="" style="shape=flexArrow;endArrow=classic;html=1;rounded=0;endSize=6;strokeWidth=2;exitX=0;exitY=0.833;exitDx=0;exitDy=0;exitPerimeter=0;" edge="1" parent="1">
          <mxGeometry width="50" height="50" relative="1" as="geometry">
            <mxPoint x="370" y="920" as="sourcePoint" />
            <mxPoint x="180" y="970" as="targetPoint" />
            <Array as="points">
              <mxPoint x="180" y="920" />
            </Array>
          </mxGeometry>
        </mxCell>
        <mxCell id="CYv_d9JeI1YmFEepkGHd-88" value="" style="shape=flexArrow;endArrow=classic;html=1;rounded=0;entryX=0;entryY=0.5;entryDx=0;entryDy=0;endSize=6;strokeWidth=2;" edge="1" parent="1" target="CYv_d9JeI1YmFEepkGHd-60">
          <mxGeometry width="50" height="50" relative="1" as="geometry">
            <mxPoint x="220" y="1008.75" as="sourcePoint" />
            <mxPoint x="350" y="1011.25" as="targetPoint" />
          </mxGeometry>
        </mxCell>
        <mxCell id="CYv_d9JeI1YmFEepkGHd-89" value="" style="shape=flexArrow;endArrow=classic;html=1;rounded=0;endSize=6;strokeWidth=2;" edge="1" parent="1">
          <mxGeometry width="50" height="50" relative="1" as="geometry">
            <mxPoint x="140" y="1010" as="sourcePoint" />
            <mxPoint x="120" y="730" as="targetPoint" />
            <Array as="points">
              <mxPoint x="70" y="1010" />
              <mxPoint x="70" y="870" />
              <mxPoint x="70" y="730" />
            </Array>
          </mxGeometry>
        </mxCell>
        <mxCell id="CYv_d9JeI1YmFEepkGHd-90" value="&lt;font size=&quot;1&quot;&gt;&lt;b style=&quot;font-size: 24px;&quot;&gt;Yes&lt;/b&gt;&lt;/font&gt;" style="text;strokeColor=none;align=center;fillColor=none;html=1;verticalAlign=middle;whiteSpace=wrap;rounded=0;" vertex="1" parent="1">
          <mxGeometry x="300" y="970" width="60" height="30" as="geometry" />
        </mxCell>
        <mxCell id="CYv_d9JeI1YmFEepkGHd-92" value="&lt;font size=&quot;1&quot;&gt;&lt;b style=&quot;font-size: 24px;&quot;&gt;No&lt;/b&gt;&lt;/font&gt;" style="text;strokeColor=none;align=center;fillColor=none;html=1;verticalAlign=middle;whiteSpace=wrap;rounded=0;" vertex="1" parent="1">
          <mxGeometry x="70" y="910" width="60" height="30" as="geometry" />
        </mxCell>
      </root>
    </mxGraphModel>
  </diagram>
</mxfile>
